<?xml version="1.0" standalone="no"?>
<!DOCTYPE svg PUBLIC "-//W3C//DTD SVG 20010904//EN"
 "http://www.w3.org/TR/2001/REC-SVG-20010904/DTD/svg10.dtd">
<svg version="1.0" xmlns="http://www.w3.org/2000/svg"
 width="225.000000pt" height="225.000000pt" viewBox="0 0 225.000000 225.000000"
 preserveAspectRatio="xMidYMid meet">

<g transform="translate(0.000000,225.000000) scale(0.100000,-0.100000)"
fill="#000000" stroke="none">
<path d="M0 1125 l0 -1125 1125 0 1125 0 0 1125 0 1125 -1125 0 -1125 0 0
-1125z m1376 527 c56 -108 186 -363 289 -567 103 -203 216 -425 252 -492 l64
-123 -196 0 -195 0 -233 469 c-127 258 -234 470 -237 470 -5 1 -210 -404 -210
-414 0 -3 63 -5 140 -5 l140 0 70 -141 c39 -78 70 -143 70 -145 0 -2 -127 -4
-283 -4 l-283 0 -55 -114 -54 -115 -193 0 -193 -1 69 132 c38 73 173 338 301
588 127 250 255 501 283 557 l53 103 150 0 150 0 101 -198z"/>
</g>
</svg>
